<?xml version="1.0" standalone="no"?>
<!DOCTYPE svg PUBLIC "-//W3C//DTD SVG 20010904//EN"
 "http://www.w3.org/TR/2001/REC-SVG-20010904/DTD/svg10.dtd">
<svg version="1.0" xmlns="http://www.w3.org/2000/svg"
 width="1254.000000pt" height="1254.000000pt" viewBox="0 0 1254.000000 1254.000000"
 preserveAspectRatio="xMidYMid meet">
<metadata>
Nerds Who Fish NWF laptop profile mark.
</metadata>
<rect width="1254" height="1254" fill="#07090f"/>
<g transform="translate(0.000000,1254.000000) scale(0.100000,-0.100000)"
fill="#fcfbfc" stroke="none">
<path d="M3039 9410 l-435 -5 -78 -38 c-141 -70 -249 -209 -276 -356 -6 -35
-10 -918 -10 -2512 l0 -2459 -312 0 c-295 0 -315 -1 -346 -20 -64 -39 -72 -66
-72 -247 0 -189 9 -239 61 -351 65 -142 195 -258 349 -314 l65 -23 4240 -3
c2864 -2 4263 1 4310 8 47 7 100 25 162 55 143 70 239 180 301 343 24 62 26
82 29 257 4 177 3 192 -16 223 -12 18 -35 41 -53 52 -31 19 -51 20 -340 20
l-308 0 -2 33 c-2 17 -3 1139 -3 2492 0 2784 9 2497 -84 2637 -65 97 -165 172
-261 199 -35 9 -758 12 -3265 13 -1771 1 -3416 -1 -3656 -4z m6867 -227 c32
-11 66 -34 100 -67 93 -93 84 172 84 -2578 l0 -2428 -1389 0 -1388 0 -34 -23
c-28 -19 -39 -37 -61 -106 -15 -45 -32 -89 -39 -97 -10 -12 -143 -14 -924 -14
-1035 0 -932 -10 -955 90 -17 75 -35 107 -73 130 -31 20 -61 20 -1404 20
l-1373 0 0 2415 c0 2355 0 2417 19 2470 35 98 86 150 182 185 53 19 125 19
3630 20 3320 0 3579 -1 3625 -17z m-4801 -5364 c29 -86 46 -110 94 -137 l39
-22 1016 0 c869 0 1021 2 1045 14 42 22 89 81 101 127 6 22 16 52 22 65 l11
24 1344 0 c809 0 1343 -4 1343 -9 0 -5 15 -19 34 -30 32 -20 47 -21 351 -21
l318 0 -5 -112 c-4 -85 -11 -127 -27 -168 -42 -103 -116 -177 -221 -222 l-55
-23 -4210 -3 c-3082 -2 -4226 0 -4270 8 -74 14 -172 67 -215 117 -18 20 -47
67 -64 103 -28 59 -31 76 -34 183 -2 65 0 117 4 116 5 -1 152 -1 326 0 l318 1
32 30 33 29 1324 -2 1324 -2 22 -66z M3168 8409 c-17 -9 -18 -106 -18 -1808 0
-1729 1 -1799 18 -1814 16 -15 50 -17 269 -17 229 0 251 2 266 18 15 17 17
103 19 979 l3 961 144 -527 c79 -289 197 -724 261 -965 85 -316 123 -443 136
-453 14 -10 79 -13 284 -13 224 0 269 2 288 16 l22 15 0 1799 c0 1769 0 1799
-19 1810 -12 6 -118 10 -275 10 -218 0 -257 -2 -270 -16 -14 -14 -16 -110 -17
-897 l0 -882 -33 120 c-101 368 -242 875 -290 1045 -30 107 -80 287 -111 399
-31 113 -61 211 -67 218 -13 16 -583 18 -610 2z M8227 8402 c-16 -17 -17 -157
-17 -1809 0 -1721 1 -1791 18 -1806 16 -15 50 -17 270 -17 239 0 253 1 272 20
20 20 20 33 20 775 l0 755 278 0 c258 0 280 1 295 18 15 16 17 51 17 290 0
271 0 272 -22 286 -19 12 -73 14 -296 13 l-272 -2 0 458 0 457 328 0 c306 0
330 1 345 18 15 16 17 50 17 274 0 234 -1 256 -18 271 -17 15 -74 17 -619 17
-568 0 -601 -1 -616 -18z"/>
</g>
<g transform="translate(0.000000,1254.000000) scale(0.100000,-0.100000)"
fill="#20d066" stroke="none">
<path d="M5095 8403 c-12 -11 -15 -26 -11 -47 14 -77 422 -2974 477 -3391 17
-132 24 -163 41 -177 18 -16 49 -18 323 -18 276 0 303 2 318 18 16 18 96 575
202 1407 59 466 71 543 78 525 3 -8 11 -60 17 -115 6 -55 47 -388 91 -740 144
-1142 133 -1066 154 -1081 15 -11 81 -14 330 -14 284 0 313 2 327 18 10 11 24
72 38 172 11 85 57 400 101 700 44 300 109 743 144 985 72 498 179 1230 224
1534 22 145 28 209 20 222 -9 18 -26 19 -293 19 -261 0 -284 -1 -299 -18 -10
-10 -17 -29 -17 -41 0 -13 -20 -186 -45 -385 -24 -198 -69 -563 -99 -811 -100
-820 -108 -880 -115 -925 -7 -48 -3 -75 -62 420 -10 91 -35 293 -54 450 -19
157 -46 384 -60 505 -14 121 -30 256 -35 300 -16 115 -39 319 -46 395 -11 117
10 110 -313 110 -320 0 -304 5 -315 -95 -16 -158 -44 -387 -146 -1210 -61
-489 -112 -894 -114 -900 -5 -16 -11 34 -101 820 -89 778 -128 1121 -146 1270
-6 50 -16 96 -21 103 -8 9 -79 12 -294 12 -249 0 -285 -2 -299 -17z"/>
</g>
</svg>
